<?xml version="1.0" encoding="iso-8859-1"?>
<!-- Uploaded to: SVG Repo, www.svgrepo.com, Generator: SVG Repo Mixer Tools -->
<svg version="1.1" id="Layer_1" xmlns="http://www.w3.org/2000/svg" xmlns:xlink="http://www.w3.org/1999/xlink" 
	 viewBox="0 0 499.2 499.2" xml:space="preserve">
<path style="fill:#C4C4C4;" d="M400,499.2c-40-32-92.8-60-152-60s-112,28-152,60H400z"/>
<path style="fill:#A8A8A8;" d="M248,440.8c59.2,0,112,26.4,152,58.4h-80l-70.4-52L248,440.8z"/>
<rect x="233.6" y="27.2" style="fill:#FFC114;" width="24" height="424"/>
<polyline style="fill:#FCA12A;" points="233.6,27.2 257.6,27.2 257.6,451.2 "/>
<circle style="fill:#F15249;" cx="248" cy="24" r="24"/>
<path style="fill:#C93131;" d="M264.8,6.4c9.6,9.6,9.6,24.8,0,34.4s-24.8,9.6-34.4,0"/>
<polygon style="fill:#3CC676;" points="241.6,59.2 75.2,59.2 48.8,95.2 75.2,131.2 241.6,131.2 "/>
<polygon style="fill:#0AA06E;" points="241.6,59.2 100,59.2 76.8,95.2 100,131.2 241.6,131.2 "/>
<polyline style="fill:#078457;" points="97.6,131.2 241.6,131.2 241.6,59.2 "/>
<polygon style="fill:#66DFFF;" points="257.6,131.2 424,131.2 450.4,171.2 424,211.2 257.6,211.2 "/>
<polygon style="fill:#3AC2F2;" points="257.6,131.2 399.2,131.2 422.4,171.2 399.2,211.2 257.6,211.2 "/>
<polyline style="fill:#009CC6;" points="401.6,211.2 257.6,211.2 257.6,131.2 "/>
<polygon style="fill:#FF8A15;" points="241.6,211.2 75.2,211.2 48.8,247.2 75.2,283.2 241.6,283.2 "/>
<polygon style="fill:#F15249;" points="241.6,211.2 100,211.2 76.8,247.2 100,283.2 241.6,283.2 "/>
<polyline style="fill:#C93131;" points="97.6,283.2 241.6,283.2 241.6,211.2 "/>
</svg>